<?xml version="1.0" encoding="UTF-8"?>
<!DOCTYPE svg PUBLIC "-//W3C//DTD SVG 1.1//EN" "http://www.w3.org/Graphics/SVG/1.1/DTD/svg11.dtd">
<!-- Creator: CorelDRAW -->
<svg xmlns="http://www.w3.org/2000/svg" xml:space="preserve" width="157.758mm" height="46.18mm" version="1.1" style="shape-rendering:geometricPrecision; text-rendering:geometricPrecision; image-rendering:optimizeQuality; fill-rule:evenodd; clip-rule:evenodd"
viewBox="0 0 15761.53 4613.83"
 xmlns:xlink="http://www.w3.org/1999/xlink"
 xmlns:xodm="http://www.corel.com/coreldraw/odm/2003">
 <defs>
  <style type="text/css">
   <![CDATA[
    .fil0 {fill:white;fill-rule:nonzero}
   ]]>
  </style>
 </defs>
 <g id="Слой_x0020_1">
  <metadata id="CorelCorpID_0Corel-Layer"/>
  <g id="_105553430773312">
   <g id="_105553174389728">
    <path class="fil0" d="M6275.43 2449.71c-189.48,0 -371.07,-24.81 -544.76,-74.43 -173.69,-51.87 -313.56,-118.42 -419.57,-199.63l186.1 -412.8c101.5,72.18 221.06,131.96 358.66,179.33 139.85,45.12 280.85,67.68 422.95,67.68 108.28,0 195.12,-10.15 260.54,-30.45 67.67,-22.56 117.29,-53.01 148.88,-91.36 31.58,-38.36 47.38,-82.34 47.38,-131.96 0,-63.16 -24.82,-112.79 -74.44,-148.89 -49.63,-38.35 -115.05,-68.8 -196.25,-91.36 -81.21,-24.81 -171.42,-47.37 -270.69,-67.67 -97,-22.56 -195.12,-49.63 -294.37,-81.21 -97,-31.58 -186.1,-72.18 -267.31,-121.81 -81.21,-49.63 -147.75,-115.05 -199.63,-196.25 -49.63,-81.21 -74.44,-184.97 -74.44,-311.29 0,-135.35 36.1,-258.29 108.28,-368.82 74.43,-112.79 184.96,-201.89 331.59,-267.3 148.88,-67.68 334.98,-101.51 558.29,-101.51 148.88,0 295.5,18.04 439.87,54.13 144.36,33.84 271.8,85.72 382.33,155.65l-169.18 416.18c-110.53,-63.16 -221.06,-109.4 -331.59,-138.72 -110.53,-31.58 -218.8,-47.38 -324.83,-47.38 -106.01,0 -192.87,12.41 -260.53,37.23 -67.68,24.81 -116.16,57.52 -145.5,98.12 -29.32,38.35 -43.98,83.46 -43.98,135.35 0,60.9 24.81,110.53 74.43,148.88 49.63,36.09 115.05,65.41 196.25,87.97 81.21,22.56 170.31,45.12 267.31,67.68 99.25,22.55 197.37,48.5 294.37,77.82 99.25,29.32 189.48,68.8 270.68,118.42 81.21,49.63 146.62,115.05 196.25,196.25 51.87,81.21 77.82,183.84 77.82,307.91 0,133.08 -37.22,254.89 -111.66,365.43 -74.44,110.53 -186.09,199.63 -334.97,267.29 -146.63,67.68 -332.72,101.51 -558.29,101.51zm1849.81 -1454.92l1140.28 0 0 426.33 -1140.28 0 0 -426.33zm40.59 974.48l1289.15 0 0 439.85 -1833.91 0 0 -2368.51 1789.93 0 0 439.86 -1245.17 0 0 1488.79zm1691.45 439.85l0 -2368.51 548.14 0 0 2368.51 -548.14 0zm1567.03 -541.36l-30.45 -632.74 1133.49 -1194.41 609.05 0 -1021.86 1099.67 -304.52 324.83 -385.72 402.66 0.01 0zm-490.63 541.36l0 -2368.51 544.76 0 0 2368.51 -544.76 0zm1620.73 0l-842.52 -1031.99 358.67 -389.12 1123.35 1421.09 -639.5 0 0 0.01zm1914.59 40.59c-187.22,0 -360.91,-30.45 -521.07,-91.36 -157.91,-60.89 -295.5,-146.61 -412.81,-257.14 -115.04,-110.54 -205.26,-240.24 -270.69,-389.12 -63.16,-148.88 -94.74,-311.29 -94.74,-487.24 0,-175.95 31.58,-338.36 94.74,-487.24 65.42,-148.88 156.78,-278.59 274.07,-389.12 117.29,-110.53 254.9,-196.24 412.8,-257.15 157.91,-60.9 329.34,-91.36 514.3,-91.36 187.22,0 358.66,30.45 514.29,91.36 157.9,60.9 294.37,146.62 409.42,257.15 117.29,110.53 208.65,240.24 274.07,389.12 65.41,146.62 98.12,309.03 98.12,487.24 0,175.95 -32.71,339.48 -98.12,490.63 -65.42,148.88 -156.78,278.58 -274.07,389.11 -115.05,108.28 -251.52,192.87 -409.42,253.76 -155.65,60.9 -325.96,91.36 -510.93,91.36l0.02 0zm-3.38 -466.93c106.01,0 203.02,-18.04 290.99,-54.13 90.23,-36.1 169.18,-87.98 236.86,-155.65 67.67,-67.67 119.55,-147.76 155.64,-240.23 38.36,-92.49 57.53,-195.12 57.53,-307.91 0,-112.79 -19.17,-215.43 -57.53,-307.91 -36.09,-92.49 -87.97,-172.56 -155.64,-240.23 -65.42,-67.67 -143.24,-119.55 -233.47,-155.65 -90.23,-36.09 -188.36,-54.13 -294.37,-54.13 -106.02,0 -204.15,18.04 -294.37,54.13 -87.98,36.1 -165.8,87.98 -233.47,155.65 -67.68,67.67 -120.68,147.75 -159.04,240.23 -36.09,92.49 -54.13,195.12 -54.13,307.91 0,110.53 18.04,213.17 54.13,307.91 38.36,92.48 90.23,172.56 155.65,240.23 67.67,67.67 146.63,119.55 236.86,155.65 90.23,36.09 188.35,54.13 294.37,54.13z"/>
    <path class="fil0" d="M5762.83 4613.83c-81.21,0 -159.03,-11.85 -233.47,-35.53 -74.44,-23.69 -134.78,-57.53 -181.03,-101.51l60.9 -91.36c41.73,37.22 93.06,66.54 153.95,87.97 62.03,22.56 127.45,33.84 196.25,33.84 112.79,0 195.68,-26.51 248.7,-79.52 53.01,-51.88 79.52,-133.09 79.52,-243.62l0 -221.63 16.91 -152.26 -11.84 -152.26 0 -269 115.05 0 0 779.91c0,153.39 -37.79,265.61 -113.36,336.67 -74.43,72.18 -184.97,108.28 -331.59,108.28l0 0.01zm-21.99 -370.49c-84.59,0 -160.72,-18.04 -228.39,-54.14 -67.68,-37.22 -121.25,-88.54 -160.72,-153.95 -38.35,-65.42 -57.52,-140.42 -57.52,-225.02 0,-84.58 19.17,-159.03 57.52,-223.32 39.47,-65.41 93.05,-116.15 160.72,-152.26 67.67,-36.09 143.8,-54.13 228.39,-54.13 78.95,0 150,16.36 213.17,49.06 63.15,32.71 113.35,81.21 150.56,145.5 37.23,64.29 55.83,142.68 55.83,235.16 0,92.49 -18.6,170.88 -55.83,235.17 -37.22,64.28 -87.41,113.35 -150.56,147.19 -63.16,33.83 -134.22,50.75 -213.17,50.75zm11.84 -106.58c65.41,0 123.5,-13.54 174.25,-40.6 50.75,-28.19 90.8,-66.55 120.12,-115.05 29.32,-49.63 43.99,-106.58 43.99,-170.88 0,-64.28 -14.67,-120.68 -43.99,-169.18 -29.32,-48.5 -69.37,-86.28 -120.12,-113.35 -50.75,-28.19 -108.84,-42.3 -174.25,-42.3 -64.29,0 -122.38,14.11 -174.25,42.3 -50.76,27.07 -90.8,64.85 -120.12,113.35 -28.19,48.5 -42.29,104.9 -42.29,169.18 0,64.29 14.1,121.25 42.29,170.88 29.32,48.5 69.36,86.85 120.12,115.05 51.87,27.07 109.96,40.6 174.25,40.6zm772.41 140.41l0 -1255.3 120.12 0 0 1255.3 -120.12 0zm799.48 8.45c-85.72,0 -162.98,-19.17 -231.78,-57.52 -67.67,-39.47 -121.24,-93.06 -160.71,-160.72 -39.47,-68.8 -59.21,-147.19 -59.21,-235.16 0,-89.1 19.73,-167.49 59.21,-235.17 39.47,-67.67 93.05,-120.68 160.71,-159.03 67.67,-38.35 144.93,-57.52 231.78,-57.52 87.97,0 165.79,19.17 233.47,57.52 68.8,38.35 122.37,91.36 160.71,159.03 39.47,67.68 59.22,146.07 59.22,235.17 0,87.97 -19.74,166.36 -59.22,235.16 -38.35,67.67 -91.92,121.25 -160.71,160.72 -68.81,38.35 -146.63,57.52 -233.47,57.52zm0 -106.57c64.28,0 121.24,-14.1 170.87,-42.29 49.63,-29.32 88.54,-69.93 116.73,-121.81 29.32,-53.01 43.99,-113.92 43.99,-182.71 0,-69.93 -14.67,-130.83 -43.99,-182.71 -28.19,-51.88 -67.11,-91.93 -116.73,-120.12 -49.63,-29.32 -106.01,-43.99 -169.18,-43.99 -63.16,0 -119.55,14.67 -169.18,43.99 -49.63,28.19 -89.11,68.24 -118.43,120.12 -29.32,51.88 -43.98,112.79 -43.98,182.71 0,68.8 14.66,129.7 43.98,182.71 29.32,51.88 68.81,92.49 118.43,121.81 49.63,28.19 105.45,42.29 167.49,42.29zm1140.2 106.57c-77.82,0 -147.75,-17.48 -209.78,-52.44 -62.03,-36.1 -111.1,-87.98 -147.19,-155.65 -36.09,-67.67 -54.14,-149.44 -54.14,-245.31 0,-97 18.05,-178.77 54.14,-245.32 37.22,-67.67 86.84,-118.98 148.88,-153.95 62.03,-34.96 131.4,-52.44 208.09,-52.44 84.59,0 160.17,19.17 226.69,57.52 67.67,37.22 120.68,89.67 159.03,157.34 38.36,67.67 57.53,146.63 57.53,236.86 0,89.1 -19.17,168.05 -57.53,236.85 -38.35,67.68 -91.36,120.69 -159.03,159.04 -66.54,38.35 -142.11,57.52 -226.69,57.52zm-458.48 -8.45l0 -1255.3 120.12 0 0 629.35 -16.92 179.33 11.85 179.34 0 267.3 -115.05 0 0 -0.01zm450.01 -98.12c63.15,0 119.55,-14.1 169.18,-42.29 49.63,-29.32 89.1,-69.93 118.42,-121.81 29.32,-53.01 43.99,-113.92 43.99,-182.71 0,-69.93 -14.67,-130.83 -43.99,-182.71 -29.32,-51.88 -68.8,-91.93 -118.42,-120.12 -49.63,-29.32 -106.02,-43.99 -169.18,-43.99 -63.16,0 -120.12,14.67 -170.88,43.99 -49.63,28.19 -89.1,68.24 -118.42,120.12 -28.2,51.88 -42.3,112.79 -42.3,182.71 0,68.8 14.1,129.7 42.3,182.71 29.32,51.88 68.8,92.49 118.42,121.81 50.75,28.19 107.71,42.29 170.88,42.29zm1231.33 98.12l0 -196.24 -5.12 -32.15 0 -328.2c0,-75.57 -21.43,-133.66 -64.29,-174.26 -41.73,-40.6 -104.33,-60.9 -187.75,-60.9 -57.56,0 -112.23,9.59 -164.14,28.76 -51.88,19.17 -95.87,44.55 -131.92,76.13l-54.14 -89.67c45.08,-38.35 99.25,-67.67 162.37,-87.97 63.2,-21.43 129.71,-32.14 199.64,-32.14 115.08,0 203.58,28.75 265.61,86.28 63.19,56.39 94.74,142.67 94.74,258.85l0 551.52 -115.01 0zm-306.25 8.45c-66.55,0 -124.64,-10.71 -174.22,-32.14 -48.54,-22.56 -85.72,-53.01 -111.66,-91.36 -25.98,-39.47 -38.94,-84.59 -38.94,-135.35 0,-46.24 10.75,-87.97 32.14,-125.2 22.56,-38.35 58.65,-68.8 108.27,-91.36 50.79,-23.68 118.43,-35.53 203.02,-35.53l306.22 0 0 89.67 -302.8 0c-85.72,0 -145.54,15.23 -179.37,45.68 -32.68,30.45 -49.07,68.24 -49.07,113.35 0,50.75 19.74,91.36 59.25,121.81 39.44,30.45 94.7,45.68 165.76,45.68 67.68,0 125.76,-15.23 174.29,-45.68 49.6,-31.57 85.68,-76.69 108.24,-135.34l27.07 82.9c-22.52,58.65 -62.03,105.45 -118.42,140.42 -55.27,34.96 -125.2,52.44 -209.78,52.44zm730.61 -8.45l0 -1255.3 120.12 0 0 1255.3 -120.12 0z"/>
    <path class="fil0" d="M81.21 1479.87c-117.15,377.1 -106.72,895.91 25.98,1293.59 178.56,535.07 614.37,1027.59 1121.11,1267.05 145.25,68.59 395.84,150.14 552.37,179.69 171.05,32.28 629.06,27.69 797.32,-8.04 652.83,-138.58 1195.33,-543.39 1502.99,-1121.46 94.63,-177.85 183.6,-443.04 216.34,-644.96 28.68,-176.61 35.7,-637.02 9.09,-595.93 -8.84,13.68 -16.25,65.8 -16.43,115.89 -0.85,202.67 -83.35,526 -193.29,757.48 -288.07,606.58 -893.27,1064.4 -1547.23,1170.34 -669.19,108.42 -1339.05,-98.55 -1820.96,-562.66 -310.13,-298.68 -515.54,-670.94 -607.08,-1100.29 -38.76,-181.73 -48.61,-556.88 -18.92,-720.11 13.25,-72.84 21.82,-135.02 18.99,-138.19 -2.78,-3.14 -20.93,45.29 -40.28,107.6l0 -0.01z"/>
    <path class="fil0" d="M1787.69 77.76c-196,41.76 -333.6,90.55 -492.69,174.64 -766.46,405.15 -1152.12,1278.51 -933,2112.7 171.3,652.23 714.08,1180.84 1366.69,1331.07 269.46,62.02 629.23,58.75 879.22,-8l116 -30.95 -192.55 -1.51c-510.04,-3.95 -920.62,-169.72 -1284.32,-518.54 -360,-345.31 -553.04,-806.99 -553.04,-1322.8 0,-777.35 502.57,-1473.92 1245.97,-1726.91 113.25,-38.53 116.8,-41.16 54.81,-40.46 -36.45,0.42 -129.67,14.28 -207.11,30.77l0.01 0z"/>
    <path class="fil0" d="M2298.44 115.09c-71.8,224.02 -37.32,505 94.48,769.91 95.62,192.2 200.98,348.85 469.84,698.85 302.02,393.13 402.69,537.04 483.6,691.37 185.36,353.47 205.34,630.58 65.74,910.93 -25.7,51.52 -64.71,118 -86.74,147.68l-40.04 53.96 45.26 -29.18c87.87,-56.61 249.75,-197.55 346.93,-302.1 186.84,-200.93 274.81,-401.59 273.93,-624.64 -1.03,-246.37 -115.75,-494.14 -374.84,-809.45 -24.36,-29.71 -243.97,-258.68 -487.95,-508.81 -560.19,-574.37 -668.65,-718.6 -732.76,-974.62 -13.36,-53.33 -25.88,-98.8 -27.83,-101.02 -1.98,-2.22 -15.3,32.5 -29.61,77.12z"/>
    <path class="fil0" d="M3261.92 2507.6c0,106.16 -39.93,291.77 -82.16,381.92 -58.52,124.98 -120.65,190.72 -233.44,247.04 -98.55,49.17 -107.53,50.75 -284.4,49.7 -240.05,-1.41 -389.07,-40.67 -820.12,-216.09 -52.59,-21.39 29.67,79.1 141.72,173.13 191.42,160.57 421.11,248.63 685.94,262.97 599.43,32.49 902.61,-372.97 653.43,-873.82 -25.42,-51.07 -49.56,-92.88 -53.61,-92.88 -4.06,0 -7.36,30.59 -7.36,68.03z"/>
    <path class="fil0" d="M4162.68 472.97c-195.33,33.45 -329.69,91.99 -433.14,188.74 -174.39,163.08 -211.54,380.06 -124.66,728.29l34.64 138.75 18.51 -167.49c29.7,-268.4 95.3,-427.98 244.67,-595.47 92.88,-104.12 173.16,-164.85 330.93,-250.21 101.08,-54.74 103.73,-57.52 53.18,-56.18 -29.25,0.77 -85.11,6.87 -124.14,13.57z"/>
    <path class="fil0" d="M3602.5 538.63c0,154.38 -132.1,279.5 -295.04,279.5 -162.94,0 -295.01,-125.12 -295.01,-279.5 0,-154.38 132.07,-279.5 295.01,-279.5 162.94,0 295.04,125.12 295.04,279.5z"/>
   </g>
  </g>
 </g>
</svg>
